<?xml version="1.0" encoding="UTF-8" standalone="no"?>
<!-- Created with Inkscape (http://www.inkscape.org/) -->

<svg xmlns:dc="http://purl.org/dc/elements/1.1/" xmlns:cc="http://creativecommons.org/ns#" xmlns:rdf="http://www.w3.org/1999/02/22-rdf-syntax-ns#" xmlns:svg="http://www.w3.org/2000/svg" xmlns="http://www.w3.org/2000/svg" xmlns:sodipodi="http://sodipodi.sourceforge.net/DTD/sodipodi-0.dtd" xmlns:inkscape="http://www.inkscape.org/namespaces/inkscape" width="1000" height="1000" viewBox="0 0 1000 1000" version="1.1" id="svg8" inkscape:version="0.92.4 (5da689c313, 2019-01-14)" sodipodi:docname="thumb.svg" inkscape:export-filename="thumb.png" inkscape:export-xdpi="51.84" inkscape:export-ydpi="51.84" style="enable-background:new">
  <title id="title6690">Neko Emblem</title>
  <defs id="defs2" />
  <sodipodi:namedview id="base" pagecolor="black" bordercolor="#666666" borderopacity="1.0" inkscape:pageopacity="0" inkscape:pageshadow="2" inkscape:zoom="0.35" inkscape:cx="400" inkscape:cy="560" inkscape:document-units="px" inkscape:current-layer="layer1" showgrid="false" units="px" showguides="true" inkscape:guide-bbox="true">
    <sodipodi:guide position="800,800" orientation="0,1" id="guide837" inkscape:locked="false" inkscape:label="" inkscape:color="rgb(0,0,255)" />
    <sodipodi:guide position="200,800" orientation="1,0" id="guide842" inkscape:locked="false" inkscape:label="" inkscape:color="rgb(0,0,255)" />
    <sodipodi:guide position="200,200" orientation="0,1" id="guide844" inkscape:locked="false" inkscape:label="" inkscape:color="rgb(0,0,255)" />
    <sodipodi:guide position="800,200" orientation="1,0" id="guide846" inkscape:locked="false" inkscape:label="" inkscape:color="rgb(0,0,255)" />
  </sodipodi:namedview>
  <metadata id="metadata5">
    <rdf:RDF>
      <cc:Work rdf:about="">
        <dc:format>image/svg+xml</dc:format>
        <dc:type rdf:resource="http://purl.org/dc/dcmitype/StillImage" />
        <dc:title>Neko Emblem</dc:title>
      </cc:Work>
    </rdf:RDF>
  </metadata>
  <g inkscape:label="Image" inkscape:groupmode="layer" id="layer1" transform="translate(0,41.125)">
    <circle style="fill:#0080ff;fill-opacity:1;stroke:none;stroke-width:25.007095;stroke-linecap:butt;stroke-linejoin:round;stroke-miterlimit:4;stroke-dasharray:none;stroke-opacity:1;paint-order:stroke fill markers" id="path825" cx="500" cy="458.875" r="500" />
    <path style="display:inline;opacity:1;fill:white;fill-opacity:1;stroke:none;stroke-width:17.348097;stroke-linecap:butt;stroke-linejoin:round;stroke-miterlimit:4;stroke-dasharray:none;stroke-opacity:1;paint-order:markers stroke fill" d="m 200,164.5 c 0,0 -4.111,112.616 34.87,289.868 0.316,1.435 0.618,2.783 0.928,4.171 -1.179,12.012 -1.549,24.089 -1.112,36.15 6.669,141.973 122.315,254.73 265.188,258.561 142.872,-3.831 258.52,-116.588 265.189,-258.561 0.437,-12.061 0.07,-24.138 -1.112,-36.15 0.311,-1.388 0.612,-2.736 0.927,-4.171 38.983,-177.252 34.873,-289.868 34.873,-289.868 0,0 -79.593,1.291 -239.129,55.453 -18.376,-4.851 -37.213,-7.78 -56.2,-8.737 -1.515,0 -3.031,0 -4.548,0.03 -1.517,-0.03 -3.032,-0.03 -4.549,-0.03 -18.986,0.957 -37.823,3.886 -56.199,8.737 C 279.591,165.791 200,164.5 200,164.5 Z m 21.259,60.712 59.616,106.438 c -14.124,20.995 -25.236,43.848 -33.012,67.893 -6.684,-12.191 -32.757,-67.2 -26.604,-174.331 z m 557.231,0 c 6.152,107.131 -19.921,162.14 -26.607,174.331 -7.774,-24.045 -18.885,-46.898 -33.008,-67.893 z m -278.616,23.431 c 0.263,0 0.527,0.03 0.791,0.03 128.791,5.782 228.524,115.089 222.757,244.147 C 717.853,613.972 620.801,710.899 499.874,715.907 378.948,710.899 281.898,613.972 276.327,492.819 270.561,363.762 370.292,254.454 499.085,248.677 c 0.263,0 0.527,-0.03 0.789,-0.03 z" id="path822" inkscape:connector-curvature="0" />
  </g>
</svg>
